<mxfile host="app.diagrams.net" agent="Mozilla/5.0 (Windows NT 10.0; Win64; x64) AppleWebKit/537.36 (KHTML, like Gecko) Chrome/136.0.0.0 Safari/537.36" version="27.0.6">
  <diagram name="第 1 页" id="DCx3cmirWp6hJbpfy_b_">
    <mxGraphModel dx="1554" dy="896" grid="1" gridSize="10" guides="1" tooltips="1" connect="1" arrows="1" fold="1" page="1" pageScale="1" pageWidth="827" pageHeight="1169" math="0" shadow="0">
      <root>
        <mxCell id="0" />
        <mxCell id="1" parent="0" />
        <mxCell id="F9icucU2oUYrcf-aPljo-14" value="" style="rounded=0;whiteSpace=wrap;html=1;" vertex="1" parent="1">
          <mxGeometry x="204.5" y="230" width="440" height="560" as="geometry" />
        </mxCell>
        <mxCell id="F9icucU2oUYrcf-aPljo-41" value="" style="edgeStyle=orthogonalEdgeStyle;rounded=0;orthogonalLoop=1;jettySize=auto;html=1;" edge="1" parent="1" source="F9icucU2oUYrcf-aPljo-8" target="F9icucU2oUYrcf-aPljo-11">
          <mxGeometry relative="1" as="geometry">
            <mxPoint x="362" y="375" as="sourcePoint" />
            <mxPoint x="362" y="480" as="targetPoint" />
          </mxGeometry>
        </mxCell>
        <mxCell id="F9icucU2oUYrcf-aPljo-32" value="" style="edgeStyle=orthogonalEdgeStyle;rounded=0;orthogonalLoop=1;jettySize=auto;html=1;exitX=0.5;exitY=1;exitDx=0;exitDy=0;entryX=0.5;entryY=0;entryDx=0;entryDy=0;" edge="1" parent="1" source="F9icucU2oUYrcf-aPljo-1" target="F9icucU2oUYrcf-aPljo-14">
          <mxGeometry relative="1" as="geometry">
            <mxPoint x="380" y="210" as="targetPoint" />
          </mxGeometry>
        </mxCell>
        <mxCell id="F9icucU2oUYrcf-aPljo-1" value="&lt;font style=&quot;font-size: 20px;&quot;&gt;需求分析&lt;/font&gt;" style="rounded=1;whiteSpace=wrap;html=1;" vertex="1" parent="1">
          <mxGeometry x="204.5" y="110" width="440" height="70" as="geometry" />
        </mxCell>
        <mxCell id="F9icucU2oUYrcf-aPljo-4" value="AADL建模" style="text;html=1;align=center;verticalAlign=middle;whiteSpace=wrap;rounded=0;" vertex="1" parent="1">
          <mxGeometry x="379" y="260" width="60" height="30" as="geometry" />
        </mxCell>
        <mxCell id="F9icucU2oUYrcf-aPljo-5" value="" style="rounded=0;whiteSpace=wrap;html=1;dashed=1;" vertex="1" parent="1">
          <mxGeometry x="229.5" y="297.5" width="390" height="250" as="geometry" />
        </mxCell>
        <mxCell id="F9icucU2oUYrcf-aPljo-6" value="" style="whiteSpace=wrap;html=1;aspect=fixed;" vertex="1" parent="1">
          <mxGeometry x="254" y="315" width="205" height="205" as="geometry" />
        </mxCell>
        <mxCell id="F9icucU2oUYrcf-aPljo-7" value="&lt;font style=&quot;font-size: 15px;&quot;&gt;模型组件&lt;/font&gt;" style="text;html=1;align=center;verticalAlign=middle;whiteSpace=wrap;rounded=0;" vertex="1" parent="1">
          <mxGeometry x="328.5" y="315" width="66" height="30" as="geometry" />
        </mxCell>
        <mxCell id="F9icucU2oUYrcf-aPljo-8" value="组件类型" style="rounded=0;whiteSpace=wrap;html=1;" vertex="1" parent="1">
          <mxGeometry x="316.5" y="345" width="90" height="30" as="geometry" />
        </mxCell>
        <mxCell id="F9icucU2oUYrcf-aPljo-9" value="组件特征" style="rounded=0;whiteSpace=wrap;html=1;" vertex="1" parent="1">
          <mxGeometry x="316.5" y="389" width="90" height="31" as="geometry" />
        </mxCell>
        <mxCell id="F9icucU2oUYrcf-aPljo-12" value="容器系统" style="rounded=0;whiteSpace=wrap;html=1;" vertex="1" parent="1">
          <mxGeometry x="316.5" y="480" width="90" height="30" as="geometry" />
        </mxCell>
        <mxCell id="F9icucU2oUYrcf-aPljo-36" value="" style="rounded=0;whiteSpace=wrap;html=1;" vertex="1" parent="1">
          <mxGeometry x="490" y="363" width="120" height="137" as="geometry" />
        </mxCell>
        <mxCell id="F9icucU2oUYrcf-aPljo-38" value="系统实现" style="text;html=1;align=center;verticalAlign=middle;whiteSpace=wrap;rounded=0;" vertex="1" parent="1">
          <mxGeometry x="520" y="375" width="60" height="25" as="geometry" />
        </mxCell>
        <mxCell id="F9icucU2oUYrcf-aPljo-40" value="子组件" style="rounded=0;whiteSpace=wrap;html=1;" vertex="1" parent="1">
          <mxGeometry x="515" y="409" width="70" height="35" as="geometry" />
        </mxCell>
        <mxCell id="F9icucU2oUYrcf-aPljo-11" value="类型实现" style="rounded=0;whiteSpace=wrap;html=1;" vertex="1" parent="1">
          <mxGeometry x="316.5" y="435" width="90" height="30" as="geometry" />
        </mxCell>
        <mxCell id="F9icucU2oUYrcf-aPljo-43" value="" style="endArrow=classic;html=1;rounded=0;exitX=1.004;exitY=0.567;exitDx=0;exitDy=0;exitPerimeter=0;entryX=0;entryY=0.5;entryDx=0;entryDy=0;" edge="1" parent="1" source="F9icucU2oUYrcf-aPljo-6" target="F9icucU2oUYrcf-aPljo-36">
          <mxGeometry width="50" height="50" relative="1" as="geometry">
            <mxPoint x="390" y="470" as="sourcePoint" />
            <mxPoint x="440" y="420" as="targetPoint" />
          </mxGeometry>
        </mxCell>
        <mxCell id="F9icucU2oUYrcf-aPljo-44" value="端口连接" style="rounded=0;whiteSpace=wrap;html=1;" vertex="1" parent="1">
          <mxGeometry x="515" y="455" width="70" height="35" as="geometry" />
        </mxCell>
        <mxCell id="F9icucU2oUYrcf-aPljo-45" value="`" style="rounded=0;whiteSpace=wrap;html=1;dashed=1;" vertex="1" parent="1">
          <mxGeometry x="229.5" y="590" width="390.5" height="170" as="geometry" />
        </mxCell>
      </root>
    </mxGraphModel>
  </diagram>
</mxfile>
